<svg id="Capa_1" enable-background="new 0 0 512 512" height="512" viewBox="0 0 512 512" width="512" xmlns="http://www.w3.org/2000/svg"><g><g><g><path d="m348.628 0h-185.256c-8.587 0-16.821 3.411-22.893 9.483l-130.996 130.996c-6.072 6.071-9.483 14.306-9.483 22.893v185.256c0 8.587 3.411 16.821 9.483 22.893l130.996 130.996c6.072 6.072 14.306 9.483 22.893 9.483h185.256c8.587 0 16.821-3.411 22.893-9.483l130.996-130.996c6.072-6.072 9.483-14.306 9.483-22.893v-185.256c0-8.587-3.411-16.821-9.483-22.893l-130.996-130.996c-6.071-6.072-14.306-9.483-22.893-9.483z" fill="#fd4755"/><path d="m371.521 9.483c-6.071-6.072-14.306-9.483-22.893-9.483h-68.547c3.068 4.748 6.737 10.118 11.054 15.884 1.085 1.448 2.168 2.858 3.251 4.247h-.658c14.061 17.268 77.544 98.997 66.17 213.256-15.685 157.559-159.186 231.021-168.484 235.583-11.803 6.114-22.439 10.743-31.213 14.212-9.451 3.248-17.77 8.296-24.557 14.502l4.834 4.834c6.072 6.072 14.307 9.483 22.893 9.483h185.256c8.587 0 16.822-3.411 22.893-9.483l130.996-130.996c6.072-6.072 9.482-14.307 9.482-22.893v-185.257c0-8.587-3.411-16.821-9.482-22.893z" fill="#fb2b3a"/><path d="m341.887 30.98h-171.774c-4.687 0-9.181 1.862-12.495 5.176l-121.462 121.462c-3.314 3.314-5.176 7.808-5.176 12.495v171.774c0 4.687 1.862 9.181 5.176 12.495l121.462 121.462c3.314 3.314 7.808 5.176 12.495 5.176h171.774c4.687 0 9.181-1.862 12.495-5.176l121.462-121.462c3.314-3.314 5.176-7.808 5.176-12.495v-171.774c0-4.687-1.862-9.181-5.176-12.495l-121.462-121.462c-3.314-3.314-7.809-5.176-12.495-5.176z" fill="#f5f8f9"/><path d="m354.382 36.156c-3.314-3.314-7.809-5.176-12.495-5.176h-39.768c21.867 29.762 67.572 104.023 57.778 202.407-15.684 157.559-159.185 231.021-168.483 235.583-9.127 4.728-17.543 8.558-24.953 11.661 1.192.252 2.414.39 3.651.39h171.774c4.686 0 9.181-1.862 12.495-5.176l121.463-121.462c3.314-3.314 5.176-7.808 5.176-12.495v-171.775c0-4.687-1.862-9.181-5.176-12.495z" fill="#e8edf2"/></g></g><g><g><g><g><path d="m364.576 248.299c-1.977 0-3.955-.755-5.464-2.263-3.017-3.017-3.017-7.909 0-10.927 12.904-12.903 20.01-30.06 20.01-48.308s-7.106-35.405-20.01-48.308c-3.017-3.017-3.017-7.909 0-10.927 3.018-3.017 7.909-3.017 10.928 0 32.662 32.662 32.662 85.807 0 118.469-1.509 1.509-3.487 2.264-5.464 2.264z" fill="#b5adb6"/></g><g><path d="m318.829 229.432c-1.977 0-3.955-.755-5.464-2.263-3.017-3.017-3.017-7.909 0-10.927 7.849-7.849 12.172-18.305 12.172-29.441s-4.323-21.592-12.172-29.441c-3.017-3.017-3.017-7.909 0-10.927 3.018-3.017 7.909-3.017 10.928 0 10.768 10.768 16.697 25.104 16.697 40.367s-5.93 29.6-16.697 40.368c-1.509 1.509-3.487 2.264-5.464 2.264z" fill="#b5adb6"/></g></g><g><g><path d="m147.424 248.299c-1.977 0-3.955-.755-5.464-2.263-32.662-32.662-32.662-85.807 0-118.469 3.018-3.017 7.909-3.017 10.928 0 3.017 3.017 3.017 7.909 0 10.927-12.904 12.903-20.01 30.06-20.01 48.308s7.106 35.404 20.01 48.308c3.017 3.017 3.017 7.909 0 10.927-1.51 1.507-3.488 2.262-5.464 2.262z" fill="#b5adb6"/></g><g><path d="m193.171 229.432c-1.977 0-3.955-.755-5.464-2.263-10.768-10.768-16.697-25.104-16.697-40.368s5.93-29.6 16.697-40.367c3.018-3.018 7.909-3.018 10.928 0 3.017 3.018 3.017 7.909 0 10.927-7.849 7.849-12.172 18.304-12.172 29.441 0 11.136 4.323 21.592 12.172 29.441 3.017 3.017 3.017 7.909 0 10.927-1.509 1.507-3.487 2.262-5.464 2.262z" fill="#b5adb6"/></g></g></g><path d="m359.138 471.089-15.271-41.459c-.005-.013-.01-.027-.015-.04l-80.602-218.828c-.031-.085-.071-.164-.106-.247-.054-.133-.107-.265-.168-.395-.055-.117-.118-.229-.179-.343-.057-.107-.113-.214-.175-.318-.071-.119-.148-.232-.225-.346-.063-.094-.125-.188-.193-.279-.082-.11-.168-.216-.255-.321-.074-.089-.147-.179-.225-.265-.087-.096-.177-.186-.268-.277-.089-.089-.177-.177-.271-.262-.088-.079-.179-.154-.27-.23-.104-.086-.207-.171-.316-.251-.092-.068-.188-.131-.283-.195-.113-.076-.225-.152-.343-.223-.105-.063-.214-.12-.322-.178-.112-.06-.222-.121-.338-.176-.131-.062-.266-.116-.4-.171-.082-.034-.16-.073-.244-.104-.019-.007-.038-.011-.057-.018-.146-.053-.295-.095-.444-.139-.098-.029-.195-.063-.293-.087-.133-.033-.269-.056-.404-.083-.115-.022-.23-.05-.346-.067-.103-.015-.209-.021-.313-.032-.147-.016-.294-.035-.44-.043-.073-.004-.146.001-.219-.001-.179-.004-.358-.008-.536.001-.065.003-.131.014-.196.019-.186.014-.372.029-.556.056-.074.011-.148.03-.222.043-.176.032-.352.064-.525.107-.08.02-.159.048-.239.071-.166.048-.332.095-.494.154-.018.007-.036.01-.054.017-.079.029-.153.067-.23.098-.14.057-.279.113-.415.177-.112.053-.219.112-.327.17-.112.06-.225.119-.334.184-.114.069-.224.143-.334.217-.098.066-.196.131-.291.201-.107.079-.208.162-.31.246-.093.077-.186.153-.276.234-.092.083-.179.171-.267.258-.092.092-.184.184-.271.281-.077.085-.149.173-.221.261-.088.107-.176.213-.259.325-.066.089-.127.181-.188.273-.078.116-.156.232-.229.352-.061.102-.116.207-.172.312-.062.115-.125.229-.181.348-.061.129-.114.261-.168.393-.034.084-.074.163-.106.248l-80.602 218.828c-.005.013-.01.027-.015.04l-15.271 41.459 4.756 4.756c2.249 2.249 5.047 3.809 8.073 4.592.279-.445.531-.912.72-1.425l14.33-38.906h150.516l14.33 38.906c.189.512.441.979.72 1.425 3.027-.783 5.825-2.344 8.073-4.592zm-42.452-70.544-49.954-51.814 22.336-23.168zm-60.686-164.758 27.135 73.668-27.135 28.145-27.135-28.145zm-33.068 89.777 22.336 23.168-49.954 51.814zm-29.397 99.089 62.465-64.79 62.465 64.79z" fill="#554e56"/><path d="m359.138 471.089-15.271-41.459c-.005-.013-.01-.027-.015-.04l-27.255-73.994c-3.482 5.36-7.076 10.529-10.761 15.494l10.85 29.457-18.67-19.365c-3.307 4.097-6.66 8.05-10.04 11.85l30.488 31.623h-62.598c-6.6 5.717-13.022 10.862-19.106 15.453h94.497l14.33 38.906c.189.512.441.979.72 1.425 3.027-.784 5.825-2.344 8.073-4.592z" fill="#433f43"/><circle cx="256" cy="186.801" fill="#fd4755" r="26.631"/><path d="m265.447 161.901c1.115 2.937 1.731 6.12 1.731 9.447 0 14.708-11.923 26.631-26.631 26.631-3.328 0-6.511-.616-9.447-1.731 3.813 10.043 13.52 17.183 24.9 17.183 14.708 0 26.631-11.923 26.631-26.631 0-11.379-7.141-21.086-17.184-24.899z" fill="#fb2b3a"/></g></g></svg>