<svg height="512" viewBox="0 0 512 512" width="512" xmlns="http://www.w3.org/2000/svg"><g><g fill="#57a4ff"><path d="m496 152h-32v272q-103.995-48-208 0-103.995-48-208 0v-272h-32v304h480z"/><path d="m347.04 269.16 52.96-61.16 40 39.33v-95.33h-160v152l48-56zm-43.04-77.16a24 24 0 1 1 24 24 24.006 24.006 0 0 1 -24-24z"/><path d="m384 304-32-29.33-4.96-5.51-3.04 3.51z"/></g><g fill="#004fac"><path d="m496 144h-24v-24a7.978 7.978 0 0 0 -4.65-7.26c-70.11-32.37-141.2-32.87-211.35-1.53-70.15-31.34-141.24-30.84-211.35 1.53a7.978 7.978 0 0 0 -4.65 7.26v24h-24a8 8 0 0 0 -8 8v304a8 8 0 0 0 8 8h480a8 8 0 0 0 8-8v-304a8 8 0 0 0 -8-8zm-232-18.81c31.93-14.05 64.2-21.19 96-21.19s64.07 7.12 96 21.17v286.61c-63.76-26.27-128.24-26.25-192 .02zm-208-.02c31.93-14.05 64.2-21.17 96-21.17s64.07 7.14 96 21.19v286.6q-47.82-19.695-96-19.71-48.09 0-96 19.7zm432 322.83h-464v-288h16v264a7.995 7.995 0 0 0 11.35 7.26c33.45-15.43 67.31-23.26 100.65-23.26s67.2 7.83 100.65 23.26a7.928 7.928 0 0 0 6.7 0c33.45-15.43 67.31-23.26 100.65-23.26s67.2 7.83 100.65 23.26a7.856 7.856 0 0 0 3.35.74 8 8 0 0 0 8-8v-264h16z"/><path d="m280 312h160a8 8 0 0 0 8-8v-160a8 8 0 0 0 -8-8h-160a8 8 0 0 0 -8 8v160a8 8 0 0 0 8 8zm78.606-16h-61.212l30.606-35.707zm21.074 0-22.641-26.415 42.989-51.185 31.972 37.715v39.885zm52.32-144v79.373l-25.9-30.546a8 8 0 0 0 -6.1-2.827h-.019a8 8 0 0 0 -6.107 2.854l-47.389 56.419-12.411-14.48a8 8 0 0 0 -12.148 0l-33.926 39.581v-130.374z"/><path d="m328 224a32 32 0 1 0 -32-32 32.036 32.036 0 0 0 32 32zm0-48a16 16 0 1 1 -16 16 16.019 16.019 0 0 1 16-16z"/><path d="m280 336h160a8 8 0 0 0 0-16h-160a8 8 0 0 0 0 16z"/><path d="m360 344h-80a8 8 0 0 0 0 16h80a8 8 0 0 0 0-16z"/><path d="m392 344h-8a8 8 0 0 0 0 16h8a8 8 0 0 0 0-16z"/><path d="m72 200h160a8 8 0 0 0 0-16h-160a8 8 0 0 0 0 16z"/><path d="m72 224h80a8 8 0 0 0 0-16h-80a8 8 0 0 0 0 16z"/><path d="m176 208a8 8 0 0 0 0 16h8a8 8 0 0 0 0-16z"/><path d="m72 304h160a8 8 0 0 0 0-16h-160a8 8 0 0 0 0 16z"/><path d="m72 280h160a8 8 0 0 0 0-16h-160a8 8 0 0 0 0 16z"/><path d="m72 256h160a8 8 0 0 0 0-16h-160a8 8 0 0 0 0 16z"/><path d="m160 320a8 8 0 0 0 -8-8h-80a8 8 0 0 0 0 16h80a8 8 0 0 0 8-8z"/><path d="m184 312h-8a8 8 0 0 0 0 16h8a8 8 0 0 0 0-16z"/><path d="m72 160h72a8 8 0 0 0 0-16h-72a8 8 0 0 0 0 16z"/></g></g></svg>