<svg height="512" viewBox="0 0 60 60" width="512" xmlns="http://www.w3.org/2000/svg"><g id="Page-1" fill="none" fill-rule="evenodd"><g id="030---Update-Schedule" fill-rule="nonzero"><path id="Shape" d="m53 8v9h-52v-9c0-2.209139 1.790861-4 4-4h44c2.209139 0 4 1.790861 4 4z" fill="#a4c2f7"/><path id="Shape" d="m49 4h-3c2.209139 0 4 1.790861 4 4v9h3v-9c0-2.209139-1.790861-4-4-4z" fill="#7facfa"/><path id="Shape" d="m42 4c1.7799916.69615377 2.9644585 2.39704811 3 4.308-.1669773 2.638824-2.3558984 4.6936142-5 4.6936142s-4.8330227-2.0547902-5-4.6936142c.0355415-1.91095189 1.2200084-3.61184623 3-4.308z" fill="#7facfa"/><path id="Shape" d="m16 4c1.7799916.69615377 2.9644585 2.39704811 3 4.308-.0886126 2.6747612-2.3250095 4.773396-5 4.692-2.6749905.081396-4.91138737-2.0172388-5-4.692.03554154-1.91095189 1.2200084-3.61184623 3-4.308z" fill="#7facfa"/><path id="Shape" d="m53 17v10.59c-6.9303249-6.2055455-17.4482142-6.1055957-24.2593577.2305328-6.8111434 6.3361284-7.6698708 16.8193805-1.9806423 24.1794672h-21.76c-2.209139 0-4-1.790861-4-4v-31z" fill="#e8edfc"/><path id="Shape" d="m50 17v8.432c1.0705997.6157281 2.0757755 1.3387846 3 2.158v-10.59z" fill="#cad9fc"/><circle id="Oval" cx="41" cy="41" fill="#e8edfc" r="18"/><path id="Shape" d="m41 23c-.507 0-1.006.034-1.5.076 9.3272756.7701697 16.5049834 8.5649813 16.5049834 17.924s-7.1777078 17.1538303-16.5049834 17.924c.5.041.993.076 1.5.076 9.9411255 0 18-8.0588745 18-18s-8.0588745-18-18-18z" fill="#cad9fc"/><rect id="Rectangle-path" fill="#cad9fc" height="5" rx="1" width="6" x="5" y="21"/><rect id="Rectangle-path" fill="#cad9fc" height="5" rx="1" width="6" x="16" y="21"/><path id="Shape" d="m33 22v2.88c-.6716329.3283143-1.3198359.7025345-1.94 1.12h-3.06c-.5522847 0-1-.4477153-1-1v-3c0-.5522847.4477153-1 1-1h4c.5522847 0 1 .4477153 1 1z" fill="#cad9fc"/><rect id="Rectangle-path" fill="#cad9fc" height="5" rx="1" width="6" x="5" y="31"/><rect id="Rectangle-path" fill="#cad9fc" height="5" rx="1" width="6" x="5" y="41"/><rect id="Rectangle-path" fill="#cad9fc" height="5" rx="1" width="6" x="16" y="41"/><rect id="Rectangle-path" fill="#cad9fc" height="5" rx="1" width="6" x="16" y="31"/><rect id="Rectangle-path" fill="#e8edfc" height="8" rx="2" width="4" x="38" y="1"/><rect id="Rectangle-path" fill="#e8edfc" height="8" rx="2" width="4" x="12" y="1"/><path id="Shape" d="m5 52h3c-2.209139 0-4-1.790861-4-4v-40c0-2.209139 1.790861-4 4-4h-3c-2.209139 0-4 1.790861-4 4v40c0 2.209139 1.790861 4 4 4z" fill="#fff"/><path id="Rectangle-path" d="m0 40h2v8h-2z" fill="#fff"/><g fill="#428dff"><path id="Shape" d="m1.02 45c-.55228475.0027614-1.00223858-.4427153-1.005-.995s.44271525-1.0022386.995-1.005h.01c.55228475 0 1 .4477153 1 1s-.44771525 1-1 1z"/><path id="Shape" d="m54 27.182v-19.182c-.0033061-2.76005315-2.2399468-4.99669388-5-5h-6c0-1.65685425-1.3431458-3-3-3s-3 1.34314575-3 3h-20c0-1.65685422-1.3431458-2.99999994-3-2.99999994s-3 1.34314572-3 2.99999994h-6c-2.76005315.00330612-4.99669388 2.23994685-5 5v32c0 .5522847.44771525 1 1 1s1-.4477153 1-1v-22h50v7.537c-5.2321176-3.757244-12.0211697-4.5809823-18-2.184v-1.353c0-1.1045695-.8954305-2-2-2h-4c-1.1045695 0-2 .8954305-2 2v3c0 1.1045695.8954305 2 2 2h.2c-6.7739473 6.1392657-8.1747561 16.250367-3.325 24h-19.875c-1.65685425 0-3-1.3431458-3-3 0-.5522847-.44771525-1-1-1s-1 .4477153-1 1c.00330612 2.7600532 2.23994685 4.9966939 5 5h21.285c4.4701023 5.500913 11.6326869 8.0529964 18.5740763 6.6180848 6.9413893-1.4349116 12.5050274-6.6177371 14.4276742-13.4401478 1.9226469-6.8224106-.1160439-14.1476743-5.2867505-18.995937zm-17-21.313v1.131c0 1.65685425 1.3431458 3 3 3s3-1.34314575 3-3v-1.131c.6348011.65400659.9929785 1.52760119 1 2.439-.1681855 2.0843921-1.9088336 3.6902478-4 3.6902478s-3.8318145-1.6058557-4-3.6902478c.0070215-.91139881.3651989-1.78499341 1-2.439zm2-2.869c0-.55228475.4477153-1 1-1s1 .44771525 1 1v4c0 .55228475-.4477153 1-1 1s-1-.44771525-1-1zm-28 2.869v1.131c0 1.65685422 1.3431458 2.99999994 3 2.99999994s3-1.34314572 3-2.99999994v-1.131c.6348011.65400659.9929785 1.52760119 1 2.439-.0904077 2.121609-1.8779548 3.771515-4 3.692-2.1220452.079515-3.9095923-1.570391-4-3.692.0070215-.91139881.3651989-1.78499341 1-2.439zm2-2.869c0-.55228475.4477153-1 1-1s1 .44771525 1 1v4c0 .55228475-.4477153 1-1 1s-1-.44771525-1-1zm-11 13v-8c0-1.65685425 1.34314575-3 3-3h4.133c-.7284363.94953555-1.12632957 2.11125746-1.133 3.308.09102178 3.2259942 2.7736878 5.77095 6 5.692 3.2263122.07895 5.9089782-2.4660058 6-5.692-.0066704-1.19674254-.4045637-2.35846445-1.133-3.308h16.266c-.7284363.94953555-1.1263296 2.11125746-1.133 3.308.1649621 3.1934124 2.8023297 5.6980581 6 5.6980581s5.8350379-2.5046457 6-5.6980581c-.0066704-1.19674254-.4045637-2.35846445-1.133-3.308h4.133c1.6568542 0 3 1.34314575 3 3v8zm26 9v-3h4v2.273c-.414.224-.811.474-1.206.727zm13 33c-9.3888407 0-17-7.6111593-17-17s7.6111593-17 17-17 17 7.6111593 17 17c-.010471 9.3845001-7.6154999 16.989529-17 17z"/><path id="Shape" d="m6 27h4c1.1045695 0 2-.8954305 2-2v-3c0-1.1045695-.8954305-2-2-2h-4c-1.1045695 0-2 .8954305-2 2v3c0 1.1045695.8954305 2 2 2zm0-5h4v3h-4z"/><path id="Shape" d="m17 27h4c1.1045695 0 2-.8954305 2-2v-3c0-1.1045695-.8954305-2-2-2h-4c-1.1045695 0-2 .8954305-2 2v3c0 1.1045695.8954305 2 2 2zm0-5h4v3h-4z"/><path id="Shape" d="m4 35c0 1.1045695.8954305 2 2 2h4c1.1045695 0 2-.8954305 2-2v-3c0-1.1045695-.8954305-2-2-2h-4c-1.1045695 0-2 .8954305-2 2zm2-3h4v3h-4z"/><path id="Shape" d="m15 35c0 1.1045695.8954305 2 2 2h2c.5522847 0 1-.4477153 1-1s-.4477153-1-1-1h-2v-3h4c.5522847 0 1-.4477153 1-1s-.4477153-1-1-1h-4c-1.1045695 0-2 .8954305-2 2z"/><path id="Shape" d="m4 45c0 1.1045695.8954305 2 2 2h4c1.1045695 0 2-.8954305 2-2v-3c0-1.1045695-.8954305-2-2-2h-4c-1.1045695 0-2 .8954305-2 2zm2-3h4v3h-4z"/><path id="Shape" d="m15 45c0 1.1045695.8954305 2 2 2h3c.5522847 0 1-.4477153 1-1s-.4477153-1-1-1h-3v-3h2c.5522847 0 1-.4477153 1-1s-.4477153-1-1-1h-2c-1.1045695 0-2 .8954305-2 2z"/><path id="Shape" d="m31.707 40.707c.3789722-.3923789.3735524-1.0160848-.0121814-1.4018186s-1.0094397-.3911536-1.4018186-.0121814l-.173.173c.6784259-4.8357666 4.4657329-8.6442262 9.297646-9.3495745 4.8319131-.7053482 9.5498741 1.8615378 11.582354 6.3015745.2402248.4849495.8226559.6907927 1.3142538.4644843.491598-.2263083.7139542-.8026372.5017462-1.3004843-2.4430596-5.3253697-8.1465391-8.3584363-13.9277354-7.4066625-5.7811962.9517738-10.2113314 5.6531643-10.8182646 11.4806625l-.363-.363c-.3923789-.3789722-1.0160848-.3735524-1.4018186.0121814s-.3911536 1.0094397-.0121814 1.4018186l2 2c.3904999.3903819 1.0235001.3903819 1.414 0z"/><path id="Shape" d="m52.293 39.293-2 2c-.3789722.3923789-.3735524 1.0160848.0121814 1.4018186s1.0094397.3911536 1.4018186.0121814l.173-.173c-.6784259 4.8357666-4.4657329 8.6442262-9.297646 9.3495745-4.8319131.7053482-9.5498741-1.8615378-11.582354-6.3015745-.2402248-.4849495-.8226559-.6907927-1.3142538-.4644843-.491598.2263083-.7139542.8026372-.5017462 1.3004843 2.4430596 5.3253697 8.1465391 8.3584363 13.9277354 7.4066625 5.7811962-.9517738 10.2113314-5.6531643 10.8182646-11.4806625l.363.363c.3923789.3789722 1.0160848.3735524 1.4018186-.0121814s.3911536-1.0094397.0121814-1.4018186l-2-2c-.3904999-.3903819-1.0235001-.3903819-1.414 0z"/><path id="Shape" d="m41 47c.5522847 0 1-.4477153 1-1v-6.586l.293.293c.3923789.3789722 1.0160848.3735524 1.4018186-.0121814s.3911536-1.0094397.0121814-1.4018186l-2-2c-.3904999-.3903819-1.0235001-.3903819-1.414 0l-2 2c-.3789722.3923789-.3735524 1.0160848.0121814 1.4018186s1.0094397.3911536 1.4018186.0121814l.293-.293v6.586c0 .5522847.4477153 1 1 1z"/></g></g></g></svg>